<?xml version="1.0" encoding="UTF-8"?>
<svg version="1.1" xmlns="http://www.w3.org/2000/svg" width="48" height="48">
<path d="M0 0 C4.6772365 3.25372974 6.71092572 7.57770344 8 13 C8.20846741 15.40190716 8.15105007 17.5831989 8 20 C8.78375 20.28875 9.5675 20.5775 10.375 20.875 C13 22 13 22 15 24 C15.87760374 30.90269094 16.46459789 38.07475697 12.125 43.875 C9.70100172 46.58004156 8.18233437 47.9174268 4.46557617 48.17700195 C1.03945607 48.24317788 -2.38584667 48.2849102 -5.8125 48.3125 C-7.59624023 48.35600586 -7.59624023 48.35600586 -9.41601562 48.40039062 C-11.13788086 48.41295898 -11.13788086 48.41295898 -12.89453125 48.42578125 C-13.94487549 48.44036377 -14.99521973 48.45494629 -16.07739258 48.4699707 C-20.58524146 47.7450848 -22.97278462 45.2397427 -25.8125 41.8125 C-27.4445223 37.94718403 -27.79050834 34.13854367 -27 30 C-25.6015625 28.2265625 -25.6015625 28.2265625 -24 27 C-23.34 27 -22.68 27 -22 27 C-24.22982534 22.54034932 -26.79552251 20.59425207 -31 18 C-33 16 -33 16 -33.375 12.125 C-33.28349972 9.15931435 -33.08557446 8.13349616 -31.4375 5.5625 C-28.1257577 3.43958827 -25.94183407 3 -22 3 C-19.39855453 4.08815326 -17.35953585 5.41092483 -15 7 C-15 7.66 -15 8.32 -15 9 C-14.34 9 -13.68 9 -13 9 C-12.896875 7.88625 -12.79375 6.7725 -12.6875 5.625 C-12.460625 4.42875 -12.23375 3.2325 -12 2 C-7.97212494 -0.68525004 -4.7317498 -0.79140181 0 0 Z M-13 9 C-12 11 -12 11 -12 11 Z M-12 12 C-11.55123384 13.64846769 -11.09069512 15.29373455 -10.625 16.9375 C-10.36976562 17.85402344 -10.11453125 18.77054688 -9.8515625 19.71484375 C-9.23339896 22.16745087 -9.23339896 22.16745087 -7 23 C-7.50827151 18.62886504 -8.45173408 15.61004338 -11 12 C-11.33 12 -11.66 12 -12 12 Z " fill="#3C4813" transform="translate(33,0)"/>
<path d="M0 0 C6.46901218 0.61028417 6.46901218 0.61028417 8.703125 2.25 C11.2581111 5.69769209 10.55393047 9.92379424 10 14 C8.4780909 18.51350492 6.99896829 21.33402114 3 24 C-0.73256501 24.51387003 -4.4859013 24.46268551 -8.25 24.5 C-9.27480469 24.54125 -10.29960937 24.5825 -11.35546875 24.625 C-16.57661272 24.67875695 -20.07566305 24.53306177 -24.171875 21.09375 C-27.03528069 18.24595342 -27.94860189 16.70672396 -28.25 12.5625 C-28 9 -28 9 -26.7487793 7.28198242 C-24.53744679 5.66091486 -23.47645897 5.71460249 -20.76953125 5.92578125 C-19.96708984 5.98056641 -19.16464844 6.03535156 -18.33789062 6.09179688 C-17.50451172 6.16462891 -16.67113281 6.23746094 -15.8125 6.3125 C-14.96751953 6.37373047 -14.12253906 6.43496094 -13.25195312 6.49804688 C-11.16687905 6.65118791 -9.08324724 6.82374157 -7 7 C-7.75 12.75 -7.75 12.75 -10 15 C-12.68839385 15.26991906 -15.29141936 15.08737357 -18 15 C-17.34 15.33 -16.68 15.66 -16 16 C-16 16.66 -16 17.32 -16 18 C-11.14922412 16.88059018 -8.222107 15.8665284 -5 12 C-4.01 13.98 -3.02 15.96 -2 18 C0.31 18 2.62 18 5 18 C5 17.67 5 17.34 5 17 C4.05125 17.061875 3.1025 17.12375 2.125 17.1875 C1.09375 17.125625 0.0625 17.06375 -1 17 C-3.47310494 13.29034259 -3.55899802 10.30185433 -3 6 C-1.5 2.5 -1.5 2.5 0 0 Z " fill="#BBF80D" transform="translate(36,22)"/>
<path d="M0 0 C4.6772365 3.25372974 6.71092572 7.57770344 8 13 C8.20846741 15.40190716 8.15105007 17.5831989 8 20 C8.78375 20.28875 9.5675 20.5775 10.375 20.875 C13 22 13 22 15 24 C15.87760374 30.90269094 16.46459789 38.07475697 12.125 43.875 C10.44042539 45.7548876 9.257403 46.8712985 7 48 C5.45976004 48.06950541 3.91665012 48.08452357 2.375 48.0625 C1.14910156 48.04896484 1.14910156 48.04896484 -0.1015625 48.03515625 C-0.72804687 48.02355469 -1.35453125 48.01195312 -2 48 C-2 47.67 -2 47.34 -2 47 C-0.7625 46.7525 0.475 46.505 1.75 46.25 C5.5434512 45.29158389 7.6074843 44.22069421 10 41 C12.58061409 36.61295604 12.9902099 30.9510495 12 26 C9.6371561 23.71192964 8.56040623 23.03820952 5.25 22.8125 C4.5075 22.874375 3.765 22.93625 3 23 C0.74504879 27.50990242 0.7569164 31.05730019 1 36 C1.33 36.66 1.66 37.32 2 38 C6.14093698 38.20970559 6.14093698 38.20970559 10 37 C9.34 38.32 8.68 39.64 8 41 C4.625 41.1875 4.625 41.1875 1 41 C-1.34693138 37.47960293 -1.32723764 35.79942991 -1.375 31.625 C-1.40335938 30.50351562 -1.43171875 29.38203125 -1.4609375 28.2265625 C-0.90436384 24.3305469 0.14372763 22.67587622 3 20 C4.32 20 5.64 20 7 20 C4.96901669 10.41295659 4.96901669 10.41295659 -1 3 C-4.5043228 2.58423289 -6.82121306 2.41060653 -10 4 C-10.46762326 8.74618334 -10.46762326 8.74618334 -8.5625 12.875 C-6.1106381 16.20953218 -6.25064569 19.95509711 -6 24 C-7.32 24 -8.64 24 -10 24 C-10.4125 22.989375 -10.825 21.97875 -11.25 20.9375 C-14.30078027 13.81168454 -14.30078027 13.81168454 -19.3125 8 C-22.9085511 6.66193447 -25.31170109 7.09532291 -29 8 C-31.5654594 10.5654594 -31.54046087 12.47686668 -32 16 C-32.33 16 -32.66 16 -33 16 C-33.48309179 8.75362319 -33.48309179 8.75362319 -31.4375 5.5625 C-28.1257577 3.43958827 -25.94183407 3 -22 3 C-19.39855453 4.08815326 -17.35953585 5.41092483 -15 7 C-15 7.66 -15 8.32 -15 9 C-14.34 9 -13.68 9 -13 9 C-12.896875 7.88625 -12.79375 6.7725 -12.6875 5.625 C-12.460625 4.42875 -12.23375 3.2325 -12 2 C-7.97212494 -0.68525004 -4.7317498 -0.79140181 0 0 Z M-13 9 C-12 11 -12 11 -12 11 Z M-12 12 C-11.55123384 13.64846769 -11.09069512 15.29373455 -10.625 16.9375 C-10.36976562 17.85402344 -10.11453125 18.77054688 -9.8515625 19.71484375 C-9.23339896 22.16745087 -9.23339896 22.16745087 -7 23 C-7.50827151 18.62886504 -8.45173408 15.61004338 -11 12 C-11.33 12 -11.66 12 -12 12 Z " fill="#292B19" transform="translate(33,0)"/>
<path d="M0 0 C5.11022971 3.92656848 6.93852019 9.11005769 9 15 C9.99139568 16.00853091 10.99031211 17.00978267 12 18 C12 18.66 12 19.32 12 20 C0.84375 20.21875 0.84375 20.21875 -2 19 C-4.0625 15.75 -4.0625 15.75 -5.01953125 13.828125 C-6.03365692 11.76298469 -6.03365692 11.76298469 -8.25 9.5 C-10.54927649 6.2153193 -10.30737129 3.91898401 -10 0 C-6.66358202 -1.66820899 -3.4251319 -1.12895409 0 0 Z " fill="#B9F60D" transform="translate(14,7)"/>
<path d="M0 0 C4.2933353 3.36846715 6.84398686 7.68233955 8 13 C8.125 15.875 8.125 15.875 8 18 C7.236875 18.185625 6.47375 18.37125 5.6875 18.5625 C1.81384272 20.63445622 1.43454737 22.92286538 0 27 C-1.32 26.34 -2.64 25.68 -4 25 C-3.94199219 24.39414062 -3.88398438 23.78828125 -3.82421875 23.1640625 C-3.47950811 16.7622935 -4.66978219 12.74653815 -7.90625 7.2265625 C-9 5 -9 5 -9 1 C-5.76645861 -0.6167707 -3.57239465 -0.47631929 0 0 Z " fill="#BAF70E" transform="translate(32,2)"/>
<path d="M0 0 C2.4375 1.4375 2.4375 1.4375 4 3 C4 3.66 4 4.32 4 5 C4.66 5 5.32 5 6 5 C6 3.35 6 1.7 6 0 C6.66 0.33 7.32 0.66 8 1 C8.68473395 3.32809543 9.34853151 5.66237777 10 8 C10.53625 9.010625 11.0725 10.02125 11.625 11.0625 C13.14280019 14.30507313 13.25251854 16.46474047 13 20 C11.68 20 10.36 20 9 20 C8.5875 18.989375 8.175 17.97875 7.75 16.9375 C4.69921973 9.81168454 4.69921973 9.81168454 -0.3125 4 C-3.9085511 2.66193447 -6.31170109 3.09532291 -10 4 C-12.5654594 6.5654594 -12.54046087 8.47686668 -13 12 C-13.33 12 -13.66 12 -14 12 C-14.48945148 4.65822785 -14.48945148 4.65822785 -12.1875 1.5625 C-7.95094289 -1.46361222 -4.94752524 -1.04158426 0 0 Z M6 5 C7 7 7 7 7 7 Z M7 8 C7.44876616 9.64846769 7.90930488 11.29373455 8.375 12.9375 C8.63023438 13.85402344 8.88546875 14.77054688 9.1484375 15.71484375 C9.76660104 18.16745087 9.76660104 18.16745087 12 19 C11.49172849 14.62886504 10.54826592 11.61004338 8 8 C7.67 8 7.34 8 7 8 Z " fill="#252618" transform="translate(14,4)"/>
<path d="M0 0 C2.91517292 1.07401108 4.77810176 1.77810176 7 4 C7.87760374 10.90269094 8.46459789 18.07475697 4.125 23.875 C2.44042539 25.7548876 1.257403 26.8712985 -1 28 C-2.54023996 28.06950541 -4.08334988 28.08452357 -5.625 28.0625 C-6.85089844 28.04896484 -6.85089844 28.04896484 -8.1015625 28.03515625 C-8.72804687 28.02355469 -9.35453125 28.01195313 -10 28 C-10 27.67 -10 27.34 -10 27 C-8.7625 26.7525 -7.525 26.505 -6.25 26.25 C-2.4565488 25.29158389 -0.3925157 24.22069421 2 21 C4.58061409 16.61295604 4.9902099 10.9510495 4 6 C2.69806171 4.95945473 1.36564007 3.95540827 0 3 C0 2.01 0 1.02 0 0 Z " fill="#2B2D1A" transform="translate(41,20)"/>
<path d="M0 0 C2.12493141 -0.02693575 4.24995912 -0.04636628 6.375 -0.0625 C7.55835938 -0.07410156 8.74171875 -0.08570312 9.9609375 -0.09765625 C13 0 13 0 15 1 C15 3.31 15 5.62 15 8 C14.38125 8.28875 13.7625 8.5775 13.125 8.875 C10.86674235 9.93720042 10.86674235 9.93720042 9 12 C5.875 12.125 5.875 12.125 3 12 C3 11.34 3 10.68 3 10 C1.68 9.67 0.36 9.34 -1 9 C-0.67 8.34 -0.34 7.68 0 7 C0.33 7.33 0.66 7.66 1 8 C3.67058851 8.14115161 6.32432238 8.04247107 9 8 C9.99 5.69 10.98 3.38 12 1 C8.04 1 4.08 1 0 1 C0 0.67 0 0.34 0 0 Z " fill="#739410" transform="translate(17,28)"/>
<path d="M0 0 C0.33 1.32 0.66 2.64 1 4 C0.21625 4.061875 -0.5675 4.12375 -1.375 4.1875 C-4.14335417 4.73409791 -4.14335417 4.73409791 -5.3125 7.0625 C-6.29810635 11.27372714 -6.99023425 16.01953149 -5 20 C-0.85906302 20.20970559 -0.85906302 20.20970559 3 19 C2.34 20.32 1.68 21.64 1 23 C-2.375 23.1875 -2.375 23.1875 -6 23 C-8.34693138 19.47960293 -8.32723764 17.79942991 -8.375 13.625 C-8.40335938 12.50351562 -8.43171875 11.38203125 -8.4609375 10.2265625 C-7.90436384 6.3305469 -6.85627237 4.67587622 -4 2 C-2.68 2 -1.36 2 0 2 C0 1.34 0 0.68 0 0 Z " fill="#393F1C" transform="translate(40,18)"/>
<path d="M0 0 C4.55664465 6.83496697 7.89552081 12.64180573 7 21 C6.67 21.66 6.34 22.32 6 23 C5.34 23 4.68 23 4 23 C4 22.34 4 21.68 4 21 C3.34 20.67 2.68 20.34 2 20 C2.99 20 3.98 20 5 20 C4.08164758 14.074025 4.08164758 14.074025 1.375 8.875 C-0.71222338 6.0287863 -0.19707708 3.41600267 0 0 Z " fill="#658705" transform="translate(22,4)"/>
<path d="M0 0 C0.33 0 0.66 0 1 0 C1.2475 1.216875 1.495 2.43375 1.75 3.6875 C2.70293754 7.62445362 4.41383183 9.87876255 7 13 C6.67 13.99 6.34 14.98 6 16 C5.4121875 15.38125 5.4121875 15.38125 4.8125 14.75 C2.96735733 12.8578669 2.96735733 12.8578669 0.3125 11.25 C-2 9 -2 9 -2.4375 5.375 C-2 2 -2 2 0 0 Z " fill="#242516" transform="translate(3,8)"/>
<path d="M0 0 C0 0.66 0 1.32 0 2 C-0.69867188 2.12117187 -1.39734375 2.24234375 -2.1171875 2.3671875 C-3.48230469 2.61855469 -3.48230469 2.61855469 -4.875 2.875 C-6.23238281 3.11863281 -6.23238281 3.11863281 -7.6171875 3.3671875 C-10.16505988 3.83044703 -10.16505988 3.83044703 -12 6 C-12.39764263 7.98821313 -12.73775349 9.98944339 -13 12 C-13.33 12 -13.66 12 -14 12 C-14.48945148 4.65822785 -14.48945148 4.65822785 -12.1875 1.5625 C-7.92803168 -1.47997737 -4.97443912 -0.84471608 0 0 Z " fill="#1D1A19" transform="translate(14,4)"/>
<path d="M0 0 C2.91517292 1.07401108 4.77810176 1.77810176 7 4 C7.1953125 6.3828125 7.1953125 6.3828125 7.125 9.125 C7.10695313 10.03507812 7.08890625 10.94515625 7.0703125 11.8828125 C7.04710937 12.58148438 7.02390625 13.28015625 7 14 C6.67 14 6.34 14 6 14 C5.62875 12.1128125 5.62875 12.1128125 5.25 10.1875 C4.33698212 6.42957135 3.31163295 5.09736753 0 3 C0 2.01 0 1.02 0 0 Z " fill="#201E19" transform="translate(41,20)"/>
<path d="M0 0 C0.33 0 0.66 0 1 0 C1.92817192 3.62830843 2.26901295 5.41073355 0.6875 8.875 C0.130625 9.57625 -0.42625 10.2775 -1 11 C-1.66 11 -2.32 11 -3 11 C-3 10.34 -3 9.68 -3 9 C-4.65 9 -6.3 9 -8 9 C-8 8.67 -8 8.34 -8 8 C-5.69 7.34 -3.38 6.68 -1 6 C-0.67 4.02 -0.34 2.04 0 0 Z " fill="#A1D60C" transform="translate(43,33)"/>
<path d="M0 0 C0.66 0.66 1.32 1.32 2 2 C6.14509433 2.28602162 6.14509433 2.28602162 10 1 C9.34 2.32 8.68 3.64 8 5 C5.69 5 3.38 5 1 5 C0.34 3.68 -0.32 2.36 -1 1 C-0.67 0.67 -0.34 0.34 0 0 Z " fill="#5D770F" transform="translate(33,36)"/>
<path d="M0 0 C0.33 0 0.66 0 1 0 C1.268125 1.2375 1.53625 2.475 1.8125 3.75 C2.63881995 7.10283779 3.62671274 9.41095936 6 12 C3.13496932 10.7156759 0.84572295 9.58401213 -1 7 C-1.25 3.875 -1.25 3.875 -1 1 C-0.67 0.67 -0.34 0.34 0 0 Z " fill="#698D04" transform="translate(3,8)"/>
<path d="M0 0 C0.66 0.99 1.32 1.98 2 3 C0.875 4.5 0.875 4.5 -1 6 C-4.1875 6.1875 -4.1875 6.1875 -7 6 C-6.401875 5.7525 -5.80375 5.505 -5.1875 5.25 C-2.71352479 3.83629988 -1.56629745 2.34944617 0 0 Z " fill="#4C5F0E" transform="translate(28,33)"/>
<path d="M0 0 C0.598125 0.350625 1.19625 0.70125 1.8125 1.0625 C1.4825 2.3825 1.1525 3.7025 0.8125 5.0625 C0.379375 4.60875 -0.05375 4.155 -0.5 3.6875 C-2.29548342 1.86225666 -2.29548342 1.86225666 -5.1875 0.0625 C-2.1875 -0.9375 -2.1875 -0.9375 0 0 Z " fill="#2E301A" transform="translate(16.1875,5.9375)"/>
</svg>
